<svg width="24" height="25" viewBox="0 0 24 25" fill="none" xmlns="http://www.w3.org/2000/svg">
<path fill-rule="evenodd" clip-rule="evenodd" d="M7.01851 0.961792C3.29466 0.961792 0.275879 3.98057 0.275879 7.70443V17.2996C0.275879 21.0235 3.29466 24.0422 7.01851 24.0422H16.6137C20.3375 24.0422 23.3563 21.0235 23.3563 17.2996V7.70443C23.3563 3.98057 20.3375 0.961792 16.6137 0.961792H7.01851ZM6.83953 3.09318C4.39168 3.09318 2.40731 5.07755 2.40731 7.5254V17.479C2.40731 19.9268 4.39168 21.9112 6.83952 21.9112H16.7478C19.1956 21.9112 21.18 19.9269 21.18 17.479V7.5254C21.18 5.07755 19.1956 3.09318 16.7478 3.09318H6.83953Z" fill="white"/>
<path fill-rule="evenodd" clip-rule="evenodd" d="M11.8159 18.4648C15.0841 18.4648 17.7334 15.8155 17.7334 12.5474C17.7334 9.27923 15.0841 6.62988 11.8159 6.62988C8.54778 6.62988 5.89844 9.27923 5.89844 12.5474C5.89844 15.8155 8.54778 18.4648 11.8159 18.4648ZM11.8158 16.3788C13.957 16.3788 15.6928 14.643 15.6928 12.5018C15.6928 10.3606 13.957 8.62487 11.8158 8.62487C9.67465 8.62487 7.93887 10.3606 7.93887 12.5018C7.93887 14.643 9.67465 16.3788 11.8158 16.3788Z" fill="white"/>
<circle cx="18.028" cy="6.33565" r="1.38301" fill="white"/>
</svg>
